# xmcd
#
# Track frame offsets: 
#        150
#        20026
#        43383
#        70943
#        88404
#        107028
#        124935
#        147946
#        172805
#        185086
#        198925
#        213878
#
# Disc length: 3179 seconds
#
# Revision: 1
# Processed by: cddbd v1.5.1PL2 Copyright (c) Steve Scherf et al.
# Submitted via: ExactAudioCopy v0.95b3
#
DISCID=b60c690c
DTITLE=Mannheim Steamroller - Romantic Melodies
DYEAR=2002
DGENRE=New Age
TTITLE0=Serenity
TTITLE1=Sunday Morning Breeze
TTITLE2=Bittersweet
TTITLE3=Slo Dancin' in the Living Room
TTITLE4=Kanbai
TTITLE5=The Sign of Love
TTITLE6=Teardrops, Raindrops
TTITLE7=Chakra 4
TTITLE8=Amber
TTITLE9=The Seven Stars of the Big Dipper
TTITLE10=Moonlight at Cove Castle
TTITLE11=Nepenthe
EXTD=Composed and Produced by Chip Davis.\nPerformed by Mannheim Steam
EXTD=roller and the London Symphony.
EXTT0=
EXTT1=
EXTT2=
EXTT3=
EXTT4=
EXTT5=
EXTT6=
EXTT7=
EXTT8=
EXTT9=
EXTT10=
EXTT11=
PLAYORDER=
